<svg xmlns="http://www.w3.org/2000/svg" viewBox="0 0 64 64" id="pos-system"></svg>
  <polygon fill="#0071bc" points="48 16 48 10 16 10 16 24 16 30 48 30 48 24 48 16"></polygon>
  <rect width="28" height="16" x="18" y="12" fill="#0585cc"></rect>
  <path fill="#0071bc" d="M24,19a1,1,0,0,0,1-1v-.146a2.849,2.849,0,0,0-2-2.709V14a1,1,0,0,0-2,0v1.145a2.844,2.844,0,0,0-.422,5.262l1.949.975A.854.854,0,0,1,22.146,23h-.292A.855.855,0,0,1,21,22.146V22a1,1,0,0,0-2,0v.146a2.849,2.849,0,0,0,2,2.709V26a1,1,0,0,0,2,0V24.855a2.844,2.844,0,0,0,.422-5.262l-1.949-.975A.854.854,0,0,1,21.854,17h.292a.855.855,0,0,1,.854.854V18A1,1,0,0,0,24,19Z"></path>
  <rect width="58" height="14" x="3" y="40" fill="#afaeae"></rect>
  <path fill="#ccc" d="M35,35V30H29v5l-3.392.678A2,2,0,0,0,24,37.64V40H40V37.64a2,2,0,0,0-1.608-1.962Z"></path>
  <path fill="#d1303d" d="M48,24h3a1,1,0,0,1,1,1v6a3,3,0,0,0,3,3h0a3,3,0,0,0,3-3V20a4,4,0,0,0-4-4H48Z"></path>
  <path fill="#ccc" d="M52,34h6a2,2,0,0,1,2,2v4a0,0,0,0,1,0,0H50a0,0,0,0,1,0,0V36A2,2,0,0,1,52,34Z"></path>
  <path fill="#f9ae53" d="M5,24h9.415A2.349,2.349,0,0,1,17,26V36H7V28"></path>
  <path fill="#f29322" d="M5,24H5a2,2,0,0,1,2,2v2a0,0,0,0,1,0,0H3a0,0,0,0,1,0,0V26A2,2,0,0,1,5,24Z"></path>
  <rect width="14" height="4" x="5" y="36" fill="#ccc"></rect>
  <path fill="#ed8145" d="M13 29H11a1 1 0 010-2h2a1 1 0 010 2zM13 33H11a1 1 0 010-2h2a1 1 0 010 2z"></path>
  <path fill="#0071bc" d="M33 15H28a1 1 0 010-2h5a1 1 0 010 2zM42 15H37a1 1 0 010-2h5a1 1 0 010 2zM33 19H28a1 1 0 010-2h5a1 1 0 010 2zM40 19H37a1 1 0 010-2h3a1 1 0 010 2zM33 23H28a1 1 0 010-2h5a1 1 0 010 2zM40 23H37a1 1 0 010-2h3a1 1 0 010 2zM33 27H28a1 1 0 010-2h5a1 1 0 010 2zM42 27H37a1 1 0 010-2h5a1 1 0 010 2z"></path>
  <path fill="#ccc" d="M32 47a2 2 0 112-2A2 2 0 0132 47zm0-2h0zm0 0h0zm0 0h0zm0 0h0zm0 0h0zm0 0h0zm0 0h0zm0 0h0zM37 51H27a1 1 0 010-2H37a1 1 0 010 2z"></path>
  <rect width="6" height="2" x="29" y="30" fill="#bfbfbf"></rect>
  <rect width="10" height="1" x="7" y="35" fill="#f29322"></rect>
  <rect width="6" height="8" x="44" y="16" fill="#ccc" rx="2"></rect>
  <path fill="#b3b3b3" d="M47,22a1,1,0,0,1-1-1V19a1,1,0,0,1,2,0v2A1,1,0,0,1,47,22Z"></path>
</svg>